<svg width="324" height="77" viewBox="0 0 324 77" fill="none" xmlns="http://www.w3.org/2000/svg">
<rect width="324" height="77" fill="#363865"/>
<path d="M255 59C255 61.7614 252.761 64 250 64C247.239 64 245 61.7614 245 59C245 56.2386 247.239 54 250 54C252.761 54 255 56.2386 255 59Z" fill="#FFD966"/>
<path d="M165.36 41.1741C165.36 43.7241 164.916 46.0897 164.028 48.2708C163.157 50.4359 161.918 52.3123 160.311 53.9C158.703 55.4877 156.769 56.7307 154.508 57.6288C152.247 58.5108 149.735 58.9519 146.972 58.9519C144.225 58.9519 141.722 58.5108 139.461 57.6288C137.2 56.7307 135.258 55.4877 133.633 53.9C132.026 52.3123 130.778 50.4359 129.891 48.2708C129.003 46.0897 128.559 43.7241 128.559 41.1741C128.559 38.6241 129.003 36.2666 129.891 34.1015C130.778 31.9204 132.026 30.0359 133.633 28.4482C135.258 26.8605 137.2 25.6256 139.461 24.7435C141.722 23.8454 144.225 23.3963 146.972 23.3963C148.814 23.3963 150.547 23.6048 152.172 24.0218C153.796 24.4227 155.287 25.0001 156.643 25.7539C157.999 26.4916 159.214 27.3977 160.285 28.4723C161.374 29.5307 162.295 30.7175 163.049 32.0326C163.802 33.3477 164.372 34.7751 164.757 36.3147C165.159 37.8543 165.36 39.4741 165.36 41.1741ZM158.452 41.1741C158.452 39.2656 158.184 37.5576 157.648 36.0501C157.112 34.5265 156.35 33.2355 155.362 32.177C154.374 31.1185 153.168 30.3086 151.745 29.7473C150.338 29.1859 148.747 28.9053 146.972 28.9053C145.197 28.9053 143.598 29.1859 142.174 29.7473C140.767 30.3086 139.562 31.1185 138.557 32.177C137.569 33.2355 136.807 34.5265 136.271 36.0501C135.735 37.5576 135.467 39.2656 135.467 41.1741C135.467 43.0826 135.735 44.7986 136.271 46.3222C136.807 47.8297 137.569 49.1128 138.557 50.1712C139.562 51.2137 140.767 52.0156 142.174 52.5769C143.598 53.1382 145.197 53.4189 146.972 53.4189C148.747 53.4189 150.338 53.1382 151.745 52.5769C153.168 52.0156 154.374 51.2137 155.362 50.1712C156.35 49.1128 157.112 47.8297 157.648 46.3222C158.184 44.7986 158.452 43.0826 158.452 41.1741Z" fill="white"/>
<path d="M180.214 25.2246V36.8078H195.531V42.6265H180.214V58.567H172.584V19.433H198.357V25.2246H180.214Z" fill="white"/>
<path d="M224.068 45.4321L219.647 33.8609C219.429 33.3477 219.203 32.7383 218.969 32.0326C218.734 31.327 218.5 30.5652 218.265 29.7473C218.048 30.5652 217.822 31.335 217.587 32.0567C217.353 32.7623 217.127 33.3798 216.909 33.909L212.513 45.4321H224.068ZM236 58.567H230.775C230.189 58.567 229.712 58.4307 229.343 58.158C228.975 57.8693 228.699 57.5165 228.514 57.0995L225.801 50.0029H210.755L208.042 57.0995C207.908 57.4684 207.648 57.8052 207.263 58.1099C206.878 58.4146 206.401 58.567 205.831 58.567H200.556L214.849 23.7812H221.732L236 58.567Z" fill="white"/>
<path d="M61 39C61 26.7406 61 20.6109 64.0277 16.2571C65.1751 14.6073 66.6073 13.1751 68.2571 12.0277C72.6109 9 78.7406 9 91 9C103.259 9 109.389 9 113.743 12.0277C115.393 13.1751 116.825 14.6073 117.972 16.2571C121 20.6109 121 26.7406 121 39C121 51.2594 121 57.3891 117.972 61.7429C116.825 63.3927 115.393 64.8249 113.743 65.9723C109.389 69 103.259 69 91 69C78.7406 69 72.6109 69 68.2571 65.9723C66.6073 64.8249 65.1751 63.3927 64.0277 61.7429C61 57.3891 61 51.2594 61 39Z" fill="white"/>
<path d="M72.5408 38.3849C72.5408 32.9014 73.8885 28.8275 76.5838 26.1632C78.3187 24.4283 80.2549 23.282 82.3926 22.7243C84.5302 22.1667 87.3339 21.8879 90.8037 21.8879C94.0257 21.8879 96.6125 22.1202 98.5643 22.5849C100.547 23.0187 102.174 23.9636 103.444 25.4196C104.497 26.6279 105.318 28.0994 105.907 29.8343C106.526 31.5382 106.883 33.2112 106.975 34.8531H104.327C104.203 33.459 103.862 32.0339 103.304 30.5779C102.778 29.0908 101.941 27.8206 100.795 26.7673C99.6486 25.683 98.1925 25.1408 96.4267 25.1408C94.7847 25.1408 93.4216 25.8688 92.3373 27.3249C91.4079 28.5951 90.7418 30.2835 90.339 32.3902C89.9673 34.249 89.7814 36.2473 89.7814 38.3849C89.7814 41.8857 90.2151 44.8133 91.0826 47.1678C92.2288 50.1729 94.0102 51.6754 96.4267 51.6754V38.8031H110.647V54.696C106.185 54.696 101.136 54.758 95.4973 54.8819L90.8037 54.9284C87.3959 54.9284 84.6232 54.6031 82.4855 53.9525C80.3789 53.2709 78.5665 52.1711 77.0485 50.6531C74.0434 47.648 72.5408 43.5586 72.5408 38.3849Z" fill="#363865"/>
</svg>
