<svg width="191" height="96" viewBox="0 0 191 96" fill="none" xmlns="http://www.w3.org/2000/svg">
<path d="M76.0732 92.6665C72.4974 92.6665 69.7785 91.799 67.9165 90.064C66.0545 88.3078 65.1235 85.8428 65.1235 82.6689C65.1235 79.4105 66.4565 76.7974 69.1226 74.8296C71.7886 72.8407 75.4914 71.8462 80.231 71.8462H86.3564V68.4819C86.3564 66.4084 85.7217 64.8003 84.4521 63.6577C83.2038 62.5151 81.437 61.9438 79.1519 61.9438C77.7131 61.9438 76.4647 62.1237 75.4067 62.4834C74.3488 62.8219 73.3861 63.298 72.5186 63.9116L71.8521 68.7041H67.0278V60.833C70.1382 58.2939 74.2113 57.0244 79.2471 57.0244C83.4154 57.0244 86.6844 58.0189 89.0542 60.0078C91.424 61.9967 92.6089 64.8426 92.6089 68.5454V85.0811C92.6089 85.5254 92.6089 85.9591 92.6089 86.3823C92.63 86.8055 92.6618 87.2287 92.7041 87.6519L96.0366 88.001V92H87.0547C86.695 90.265 86.4728 88.6886 86.3882 87.271C85.1821 88.8156 83.6693 90.1063 81.8496 91.1431C80.0511 92.1587 78.1257 92.6665 76.0732 92.6665ZM76.9937 87.4297C79.0672 87.4297 80.9609 86.9325 82.6748 85.938C84.3887 84.9435 85.6159 83.748 86.3564 82.3516V76.1309H80.0088C77.1312 76.1309 74.973 76.8185 73.5342 78.1938C72.0954 79.5692 71.376 81.1032 71.376 82.7959C71.376 85.8851 73.2485 87.4297 76.9937 87.4297ZM100.829 92V88.001L106.002 87.1123V62.5786L100.829 61.6899V57.6592H111.588L112.128 62.0391L112.191 62.6421C113.165 60.8859 114.36 59.5106 115.778 58.5161C117.217 57.5216 118.856 57.0244 120.697 57.0244C121.353 57.0244 122.02 57.0879 122.697 57.2148C123.395 57.3206 123.892 57.4264 124.188 57.5322L123.363 63.3403L119.015 63.0864C117.365 62.9806 115.979 63.3615 114.857 64.229C113.736 65.0754 112.868 66.2179 112.255 67.6567V87.1123L117.428 88.001V92H100.829ZM127.775 92V88.001L132.948 87.1123V62.5786L127.775 61.6899V57.6592H139.201V87.1123L144.374 88.001V92H127.775ZM132.631 49.1851V42.4883H139.201V49.1851H132.631ZM148.563 92V88.001L153.737 87.1123V62.293H148.373V57.6592H153.737V53.311C153.737 49.6506 154.689 46.8258 156.593 44.8369C158.519 42.8268 161.195 41.8218 164.623 41.8218C165.342 41.8218 166.115 41.8853 166.94 42.0122C167.786 42.118 168.654 42.2767 169.542 42.4883L168.781 47.249C168.4 47.1644 167.882 47.0903 167.226 47.0269C166.591 46.9634 165.988 46.9316 165.417 46.9316C161.798 46.9316 159.989 49.0581 159.989 53.311V57.6592H167.479V62.293H159.989V87.1123L165.893 88.001V92H148.563Z" fill="white"/>
<path d="M49.875 15.8936V95.3614H42.875V0H86.625V15.8936H69.5625H49.875Z" fill="#E4572E"/>
<path d="M36.75 15.8936V95.3614H43.75V0H0V15.8936H17.0625H36.75Z" fill="#F3A712"/>
</svg>
